<svg width="1021" height="262" viewBox="0 0 1021 262" fill="none" xmlns="http://www.w3.org/2000/svg">
<path d="M135.648 125.612C135.648 118.349 133.233 116.28 125.964 116.28C125.964 116.28 106.923 115.928 98.284 115.928C91.002 115.928 67.824 116.28 67.824 116.28C60.555 116.28 58.128 118.701 58.128 125.612C58.128 125.612 57.788 157.807 57.788 168.176C57.788 179.947 58.128 217.682 58.128 217.682C58.128 225.279 60.555 227.354 67.824 227.354C67.824 227.354 90.662 227.718 95.504 227.718C100.006 227.718 116.62 227.354 125.964 227.354C133.233 227.354 135.648 224.945 135.648 217.682C135.648 217.682 136.001 177.872 136.001 168.176C136 159.87 136 138.773 135.648 125.612ZM529.462 125.612C529.462 118.349 527.035 116.28 519.766 116.28C519.766 116.28 503.505 115.928 494.148 115.928C485.169 115.928 466.481 116.28 466.481 116.28C459.211 116.28 456.797 118.701 456.797 125.612C456.797 125.612 456.445 155.726 456.445 168.176C456.445 182.035 456.797 217.682 456.797 217.682C456.797 225.279 459.212 227.354 466.481 227.354C466.481 227.354 484.126 227.718 492.426 227.718C501.43 227.718 519.766 227.354 519.766 227.354C527.036 227.354 529.462 224.945 529.462 217.682C529.462 217.682 529.802 169.917 529.802 168.176C529.802 160.58 529.462 138.773 529.462 125.612ZM957.163 116.281C957.163 116.281 938.148 115.929 924.993 115.929C910.807 115.929 895.564 116.281 895.564 116.281C888.321 116.281 885.88 118.35 885.88 125.613C885.88 125.613 885.88 132.196 885.88 135.309C885.88 139.126 885.88 144.999 885.88 144.999C885.88 152.274 888.32 154.695 895.564 154.695C895.564 154.695 921.522 155.028 924.993 155.028C935.708 155.028 946.423 155.028 957.163 154.695C964.433 154.695 966.52 152.274 966.848 144.999C966.848 144.999 967.2 139.805 967.2 135.309C967.2 130.121 966.848 125.613 966.848 125.613C966.521 118.349 965.137 116.281 957.163 116.281ZM1020.15 173.377C1020.15 186.18 1014.61 188.601 1005.63 188.601H895.564C888.321 188.601 885.88 190.688 885.88 198.297C885.88 198.297 885.88 203.139 885.88 207.289C885.88 211.1 885.88 216.287 885.88 216.287C885.88 223.902 890.03 227.354 897.651 227.354C897.651 227.354 920.841 227.354 928.463 227.354C934.676 227.354 953.717 227.354 953.717 227.354C961.665 227.354 963.401 225.625 963.401 218.362C963.401 211.099 964.432 207.967 973.085 207.967C973.085 207.967 999.395 207.967 991.773 207.967C984.503 207.967 1010.46 207.967 1010.46 207.967C1018.08 207.967 1020.15 210.401 1020.15 217.682V227.354C1020.15 251.588 1010.46 261.272 986.591 261.272C986.591 261.272 942.65 261.624 922.578 261.624C905.952 261.624 863.041 261.272 863.041 261.272C838.819 261.272 829.136 251.94 829.136 227.354C829.136 227.354 828.783 173.716 828.783 169.917C828.783 162.648 829.136 116.279 829.136 116.279C829.136 92.05 838.82 82.354 863.041 82.354C863.041 82.354 907.335 82.008 923.609 82.008C941.265 82.008 986.59 82.354 986.59 82.354C1010.46 82.354 1019.82 91.705 1020.14 116.279C1020.14 116.279 1020.5 130.83 1020.5 144.299C1020.5 156.751 1020.15 173.377 1020.15 173.377ZM193.436 227.355C193.436 251.589 183.752 261.273 159.531 261.273C159.531 261.273 111.779 261.625 95.165 261.625C80.287 261.625 33.906 261.273 33.906 261.273C9.684 261.273 0 251.589 0 227.355V9.684C0 2.421 2.78 0 9.684 0C9.684 0 20.072 0 28.372 0C37.024 0 48.444 0 48.444 0C55.713 0 58.128 2.421 58.128 9.684V72.339C58.128 79.602 60.555 82.01 67.824 82.01L159.531 82.356C184.093 82.356 193.436 92.052 193.436 116.281C193.436 116.281 193.789 152.62 193.789 168.177C193.789 183.759 193.436 227.355 193.436 227.355ZM371.303 135.308C371.303 135.308 359.205 135.647 352.967 135.647C347.433 135.647 336.014 135.308 336.014 135.308C327.714 135.308 326.33 132.541 326.33 124.58C326.33 117.669 323.903 116.28 316.973 116.28C316.973 116.28 308.321 116.28 304.522 116.28C299.68 116.28 292.411 116.28 292.411 116.28C285.142 116.28 282.715 118.003 282.715 125.612V251.589C282.715 259.197 280.3 261.273 273.031 261.273C273.031 261.273 258.14 261.625 252.607 261.625C247.438 261.625 234.271 261.273 234.271 261.273C226.663 261.273 224.587 258.858 224.587 251.589V92.052C224.587 84.444 227.002 82.356 234.271 82.356C234.271 82.356 269.912 82.01 296.209 82.01C321.487 82.01 352.626 82.356 352.626 82.356C378.231 82.356 384.457 90.33 384.457 112.816V124.581C384.458 133.24 379.616 135.308 371.303 135.308ZM587.59 227.355C587.59 251.589 577.894 261.273 553.672 261.273C553.672 261.273 511.806 261.625 492.777 261.625C474.089 261.625 432.574 261.273 432.574 261.273C408.679 261.273 398.995 251.589 398.995 227.355C398.995 227.355 398.642 156.764 398.642 168.177C398.642 179.948 398.995 116.281 398.995 116.281C398.995 92.052 408.679 82.356 432.574 82.356C432.574 82.356 478.93 82.01 492.777 82.01C507.315 82.01 553.672 82.356 553.672 82.356C577.894 82.356 587.59 92.052 587.59 116.281C587.59 116.281 587.943 156.073 587.943 168.177C587.942 180.992 587.59 227.355 587.59 227.355ZM801.443 227.355C801.443 251.941 791.759 260.946 767.538 261.273C744.348 261.625 725.659 261.625 707.322 261.625C689.666 261.625 649.17 261.273 649.17 261.273C625.307 261.273 617.697 250.91 617.697 234.976V217.683C617.697 210.402 619.76 207.968 627.393 207.968C627.393 207.968 651.936 207.968 646.076 207.968C639.486 207.968 665.796 207.968 665.796 207.968C673.417 207.968 675.152 210.402 675.152 217.683C675.152 225.28 678.598 227.355 685.867 227.355C685.867 227.355 715.623 227.719 710.441 227.719C705.939 227.719 733.631 227.355 733.631 227.355C741.58 227.355 744.347 224.236 744.698 216.288C744.698 216.288 745.051 209.025 745.051 206.943C745.051 204.868 744.698 197.254 744.698 197.254C744.346 189.979 742.284 187.57 735.014 187.57H650.576C626.348 187.57 617.004 177.873 616.652 153.305C616.652 153.305 616.312 135.648 616.312 134.271C616.312 128.731 616.652 116.281 616.652 116.281C617.004 91.009 626.348 82.356 650.576 82.356C650.576 82.356 689.664 82.01 707.673 82.01C726.009 82.01 770.303 82.356 770.303 82.356C791.054 82.356 800.059 94.826 800.059 112.118V125.613C800.059 132.895 797.996 135.309 790.375 135.309C790.375 135.309 778.251 135.648 770.982 135.648C763.738 135.648 754.029 135.309 754.029 135.309C746.081 135.309 744.697 133.24 744.697 125.613C744.697 118.702 743.314 116.627 735.692 116.281C735.692 116.281 718.387 115.583 708.025 115.583C700.73 115.583 681.01 116.281 681.01 116.281C673.414 116.627 671.679 118.35 671.326 125.613C671.326 125.613 670.974 130.807 670.974 134.272C670.974 137.385 671.326 142.227 671.326 142.227C671.679 149.842 675.149 152.622 682.393 152.622L767.535 153.307C791.757 153.653 801.44 163.349 801.44 187.572C801.44 207.97 801.44 198.985 801.44 206.945C801.443 214.552 801.443 227.355 801.443 227.355Z" fill="#737373"/>
</svg>
