<svg xmlns="http://www.w3.org/2000/svg" data-name="Layer 1" viewBox="0 0 100 125" x="0px" y="0px"><defs><style>
      .cls-1 {
        stroke-width: 0px;
      }
    </style></defs><path class="cls-1" d="m94.427,2.478h-58.061c-.729,0-1.32.591-1.32,1.32v20.398h-3.431c-.729,0-1.32.591-1.32,1.32v14.412l-5.722-3.401c-.925-4.358-4.803-7.639-9.433-7.639-5.318,0-9.644,4.326-9.644,9.644v54.84c0,2.288,1.861,4.149,4.149,4.149h4.272c.427,0,.838-.065,1.226-.185.393.122.801.185,1.22.185h4.272c2.288,0,4.149-1.861,4.149-4.149v-40.756c1.341.716,3.222,1.28,4.149,1.302l6.113.143v42.14c0,.729.591,1.32,1.32,1.32h4.39c.729,0,1.32-.591,1.32-1.32v-41.976l1.406.033c.038,0,.077.001.115.001.606,0,1.205-.113,1.769-.328.552.211,1.15.328,1.773.328.039,0,.079,0,.118-.001l14.549-.34c.928-.022,2.808-.586,4.149-1.302v40.756c0,2.288,1.861,4.149,4.149,4.149h4.272c.419,0,.827-.063,1.22-.185.388.12.799.185,1.226.185h4.272c2.288,0,4.149-1.861,4.149-4.149v-54.84c0-5.318-4.326-9.644-9.644-9.644-4.63,0-8.507,3.28-9.433,7.639l-6.449,3.833-6.737-1.714v-13.131c0-.729-.591-1.32-1.32-1.32h-9.586v-14.688h46.641v86.693c0,.729.591,1.32,1.32,1.32h4.39c.729,0,1.32-.591,1.32-1.32V3.798c0-.729-.591-1.32-1.32-1.32Zm-54.348,24.358h3.118v3.838h-3.118v-3.838Zm-9.785,16.15v.992l-.375-.009-2.63-2.756,2.854,1.697c.049.029.1.054.151.077Zm-9.659,51.895h-2.855c.183-.468.285-.976.285-1.509v-26.684h1.367c.989,0,1.915-.271,2.711-.74v27.424c0,.832-.677,1.509-1.509,1.509Zm-1.202-30.832h-2.687c-.729,0-1.32.591-1.32,1.32v28.004c0,.832-.677,1.509-1.509,1.509h-4.272c-.832,0-1.509-.677-1.509-1.509v-54.84c0-3.862,3.142-7.004,7.004-7.004,2.321,0,4.382,1.136,5.657,2.881l-.037-.038c-.916-.96-2.156-1.506-3.49-1.538-1.326-.029-2.597.456-3.558,1.373-.96.916-1.506,2.156-1.538,3.49s.456,2.598,1.373,3.558l8.596,9.008v11.076c0,1.495-1.216,2.711-2.711,2.711Zm6.072-14.089l-10.048-10.529c-.429-.45-.658-1.044-.643-1.673.015-.629.271-1.212.721-1.641.45-.43,1.05-.659,1.673-.643.629.015,1.212.271,1.641.721l9.537,9.994c.242.253.574.4.924.408l13.446.315c-.399.738-.619,1.585-.598,2.482.019.798.226,1.547.576,2.208l-13.74-.321c-.776-.018-3.059-.881-3.49-1.319Zm13.931,44.922h-1.75v-40.759l1.75.041v40.718Zm22.31-43.603l-14.549.34c-.019,0-.037,0-.056,0-1.268,0-2.313-1.016-2.343-2.29-.03-1.292.997-2.369,2.289-2.399l14.343-.336c.35-.008.682-.155.924-.408l9.537-9.994c.429-.45,1.012-.706,1.641-.721.019,0,.038,0,.057,0,.608,0,1.18.228,1.616.644,0,0,0,0,0,0,.45.429.706,1.012.721,1.641.015.629-.214,1.223-.643,1.673l-10.047,10.528c-.431.438-2.714,1.301-3.49,1.319Zm6.851,42.094v-27.424c.796.47,1.722.74,2.711.74h1.367v26.684c0,.532.102,1.041.285,1.509h-2.855c-.832,0-1.509-.677-1.509-1.509Zm7.004-61.844c3.862,0,7.004,3.142,7.004,7.004v54.84c0,.832-.677,1.509-1.509,1.509h-4.272c-.832,0-1.509-.677-1.509-1.509v-28.004c0-.729-.591-1.32-1.32-1.32h-2.687c-1.495,0-2.711-1.216-2.711-2.711v-11.076l8.596-9.008c.916-.96,1.404-2.224,1.373-3.558-.031-1.334-.577-2.573-1.538-3.49h0c-.961-.917-2.23-1.402-3.558-1.373-1.334.031-2.573.577-3.49,1.538l-.037.038c1.275-1.744,3.335-2.881,5.657-2.881Zm-16.003,11.525c.107.027.217.041.325.041.235,0,.469-.063.674-.185l2.854-1.696-2.63,2.756-7.84.183v-2.782l6.616,1.683Zm-9.256,1.16l-3.317.078c-.584.014-1.142.129-1.659.326-.527-.2-1.086-.313-1.651-.326l-10.781-.252v-17.203h4.505v5.158c0,.729.591,1.32,1.32,1.32h5.758c.729,0,1.32-.591,1.32-1.32v-5.158h4.505v17.378Zm42.765,50.667h-1.75V8.188c0-.729-.591-1.32-1.32-1.32h-49.281c-.729,0-1.32.591-1.32,1.32v16.008h-1.75V5.119h55.421v89.763ZM13.582,28.427c5.144,0,9.33-4.185,9.33-9.33s-4.185-9.33-9.33-9.33-9.33,4.185-9.33,9.33,4.185,9.33,9.33,9.33Zm0-16.019c3.689,0,6.69,3.001,6.69,6.69s-3.001,6.69-6.69,6.69-6.69-3.001-6.69-6.69,3.001-6.69,6.69-6.69Zm54.247,6.69c0,5.144,4.185,9.33,9.33,9.33s9.33-4.185,9.33-9.33-4.185-9.33-9.33-9.33-9.33,4.185-9.33,9.33Zm16.019,0c0,3.689-3.001,6.69-6.69,6.69s-6.69-3.001-6.69-6.69,3.001-6.69,6.69-6.69,6.69,3.001,6.69,6.69Z"/></svg>
