<svg xmlns="http://www.w3.org/2000/svg" version="1.1" viewBox="-5.0 -10.0 110.0 135.0">
 <path d="m36.809 33.902 1.6602 5.7148-8.2305 10.965c-2.5547-1.5742-5.5586-2.4805-8.7773-2.4805-9.2578 0-16.773 7.5156-16.773 16.77s7.5156 16.77 16.773 16.77c8.7266 0 15.906-6.6836 16.699-15.207h2.2422c0.73047 3.6836 3.9805 6.4648 7.8789 6.4648 4.4297 0 8.0273-3.5938 8.0273-8.0273 0-1.6914-0.52344-3.2617-1.418-4.5547l15.852-16.992 1.6992 5.9219c-6.2461 2.4453-10.668 8.5234-10.668 15.625 0 9.2539 7.5156 16.77 16.77 16.77 9.2578 0 16.77-7.5156 16.77-16.77s-7.5117-16.77-16.77-16.77c-1.0586 0-2.0977 0.09375-3.0977 0.28125l-5.043-17.594h8.1406c0.86328 0 1.5625-0.69922 1.5625-1.5625 0-0.85937-0.69922-1.5625-1.5625-1.5625h-10.215c-0.49219 0-0.94922 0.23438-1.2461 0.625-0.29297 0.39063-0.39062 0.89844-0.25391 1.3711l2.5859 9.0195h-27.965l-1.3867-4.7773h6.4102s1.5625-0.10938 1.5625-1.5742v-1.043c0-3.7148-3.0117-6.7305-6.7305-6.7305h-7.1719c-0.95703 0-1.875 0.37891-2.5508 1.0547-0.67578 0.67969-1.0586 1.5938-1.0586 2.5508v4.1797c0 0.86328 0.70312 1.5625 1.5625 1.5625zm36.496 18.363c-4.9375 2.0547-8.4062 6.9297-8.4062 12.605 0 7.5312 6.1133 13.645 13.645 13.645s13.645-6.1133 13.645-13.645c0-7.5352-6.1133-13.645-13.645-13.645-0.76172 0-1.5078 0.0625-2.2344 0.17969l3.7344 13.035c0.23828 0.82812-0.23828 1.6914-1.0703 1.9297-0.82812 0.23828-1.6953-0.23828-1.9336-1.0703zm-44.953 0.82812c-2.0234-1.1875-4.3789-1.8672-6.8906-1.8672-7.5312 0-13.648 6.1094-13.648 13.645 0 7.5312 6.1172 13.645 13.648 13.645 7 0 12.781-5.2852 13.555-12.082h-13.555c-0.86328 0-1.5625-0.70312-1.5625-1.5625 0-0.34766 0.10937-0.66797 0.30469-0.92578 0.003906-0.007812 0.003906-0.011718 0.007813-0.015624zm22.113 7.3867c-0.66016-0.33203-1.3984-0.51562-2.1836-0.51562-2.707 0-4.9062 2.1992-4.9062 4.9062 0 2.707 2.1992 4.9023 4.9062 4.9023s4.9023-2.1953 4.9023-4.9023c0-0.78516-0.18359-1.5195-0.50781-2.1758l-3.0273 3.2422c-0.58984 0.62891-1.5781 0.66406-2.207 0.074219-0.63281-0.58594-0.66797-1.5781-0.078125-2.207zm-19.617-5.5078c2.2656 2.1484 3.7969 5.0664 4.168 8.3359h-10.43zm13.008 3.1992-4.2969-14.801-6.8242 9.0898c3.0117 2.7383 5.0273 6.5625 5.4258 10.848h2.2422c0.42188-2.1406 1.6992-3.9727 3.4531-5.1367zm8.7969-0.035156 15.238-16.332h-25.535l4.4102 15.18c0.49219-0.09375 0.99609-0.14453 1.5156-0.14453 1.6094 0 3.1133 0.48047 4.3711 1.2969zm-32.363-38.215c0-0.71094-0.48047-1.3359-1.1719-1.5117-0.6875-0.18359-1.4102 0.12891-1.7578 0.75391l-8.2656 14.91c-0.26953 0.48438-0.26172 1.0742 0.019531 1.5547 0.28125 0.47266 0.79297 0.76953 1.3477 0.76953h5.3203v8.3594c0 0.71094 0.47656 1.332 1.1641 1.5156 0.6875 0.17969 1.4102-0.125 1.7617-0.74219l8.543-15.086c0.27344-0.48437 0.26953-1.0781-0.007812-1.5586-0.28125-0.47656-0.79688-0.77344-1.3516-0.77344h-5.6016v-8.1914zm-3.125 6.0391v3.7148c0 0.86328 0.70313 1.5625 1.5625 1.5625h4.4844l-4.3047 7.5938v-3.9961c0-0.86328-0.69531-1.5625-1.5625-1.5625h-4.2305zm16.484 4.8164h11.227c-0.24609-1.75-1.75-3.0977-3.5703-3.0977h-7.1719c-0.12891 0-0.25 0.050781-0.34375 0.14062-0.089843 0.089844-0.14062 0.21484-0.14062 0.33984z" fill-rule="evenodd"/>
</svg>
