<svg xmlns="http://www.w3.org/2000/svg" xmlns:xlink="http://www.w3.org/1999/xlink" version="1.1" width="386.504" height="386.504" viewBox="0 0 386.504 386.504">
<defs>
<clipPath id="clip_0">
<path transform="matrix(1,0,0,-1,9,377.504)" d="M-9-9H378V378H-9Z" fill-rule="evenodd"/>
</clipPath>
</defs>
<g clip-path="url(#clip_0)">
<g id="layer_1" data-name="Warstwa 1">
<path transform="matrix(1,0,0,-1,9,377.504)" d="M326.212 185.048C326.212 106.771 262.756 43.3159 184.48 43.3159 106.203 43.3159 42.7473 106.771 42.7473 185.048 42.7473 263.325 106.203 326.78 184.48 326.78 262.756 326.78 326.212 263.325 326.212 185.048" fill="#1a1a18"/>
<path transform="matrix(1,0,0,-1,9,377.504)" d="M273.159 198.315 267.028 202.435 267.149 202.587 272.712 204.436 301.186 203.133C301.175 199.513 300.69 196.008 299.794 192.665ZM295.856 183.062 274.575 197.361 299.625 192.047C298.727 188.881 297.45 185.867 295.856 183.062ZM289.052 174.174 267.49 193.522 264.514 199.197 264.714 199.454 272.903 197.719 295.53 182.51C293.734 179.455 291.552 176.658 289.052 174.174ZM280.92 167.898 268.337 191.903 288.597 173.728C286.28 171.499 283.704 169.539 280.92 167.898ZM271.083 163.728 261.814 190.869 262.111 196.782 262.318 196.812 262.702 196.865 262.746 196.921 266.977 193.122 280.363 167.579C277.472 165.935 274.359 164.635 271.083 163.728ZM260.398 162.253 261.732 189.142 270.467 163.559C267.246 162.724 263.875 162.273 260.398 162.253ZM259.76 162.256C256.167 162.292 252.685 162.788 249.369 163.692L255.188 191.673 258.524 196.857 259.203 196.546 261.173 190.777ZM239.761 167.695 254.223 190.176 248.755 163.864C245.579 164.787 242.567 166.076 239.761 167.695ZM230.964 174.49 249.363 194.938 255.726 198.138 255.868 198.074 254.587 191.922 239.206 168.019C236.187 169.819 233.417 172 230.964 174.49ZM224.766 182.56 247.792 194.148 230.516 174.95C228.316 177.248 226.388 179.804 224.766 182.56ZM220.51 192.745 246.186 201.048 249.843 200.832 252.649 199.546 248.967 195.457 224.446 183.117C222.748 186.114 221.416 189.344 220.51 192.745ZM219.146 202.662 244.435 201.154 220.355 193.366C219.61 196.349 219.195 199.463 219.146 202.662ZM220.402 213.385 224.105 212.617 247.196 202.044 246.104 201.692 219.14 203.302C219.144 206.779 219.582 210.158 220.402 213.385ZM221.499 213.809 220.569 214.003 220.626 214.211ZM148.808 224.632 134.43 217.211 143.584 231.563C145.559 229.451 147.313 227.125 148.808 224.632ZM153.175 214.411 127.12 205.75 133.748 216.144 149.134 224.081C150.873 221.075 152.239 217.829 153.175 214.411ZM154.621 204.09 127.839 205.318 153.344 213.793C154.141 210.685 154.579 207.433 154.621 204.09ZM153.232 192.987 126.594 198.634 123.786 200.522 123.89 200.685 126.48 204.744 154.623 203.452C154.611 199.831 154.128 196.327 153.232 192.987ZM149.291 183.381 128.013 197.68 153.065 192.366C152.163 189.2 150.887 186.186 149.291 183.381ZM142.492 174.493 120.925 193.84 118.21 199.019 118.962 198.825 119.252 198.75 119.536 198.856 120.603 199.255 126.342 198.038 148.971 182.829C147.172 179.774 144.99 176.977 142.492 174.493ZM134.355 168.219 121.775 192.221 142.033 174.046C139.717 171.818 137.142 169.857 134.355 168.219ZM124.523 164.047 115.254 191.187 115.58 197.78 120.415 193.441 133.805 167.898C130.91 166.254 127.797 164.953 124.523 164.047ZM113.835 162.572 115.168 189.463 123.905 163.878C120.682 163.043 117.31 162.591 113.835 162.572ZM113.195 162.575C109.604 162.608 106.123 163.107 102.808 164.011L108.63 191.994 112.336 197.758 114.608 191.096ZM93.1955 168.014 107.664 190.497 102.19 164.183C99.0176 165.106 96.0046 166.395 93.1955 168.014ZM84.3996 174.809 102.798 195.257 109.339 198.545 108.028 192.238 92.6464 168.338C89.6275 170.14 86.8586 172.319 84.3996 174.809ZM78.2036 182.882 101.233 194.467 83.9526 175.269C81.7574 177.567 79.8225 180.123 78.2036 182.882ZM73.9505 193.064 99.6245 201.367 107.041 200.926 102.408 195.776 77.8844 183.436C76.1876 186.433 74.8517 189.663 73.9505 193.064ZM72.5865 202.981 97.8755 201.473 73.7895 193.685C73.0494 196.668 72.6335 199.782 72.5865 202.981ZM73.8425 213.704 101.434 207.982 101.036 207.328 100.737 206.837 101.031 206.344 102.849 203.277 102.946 203.111 99.5445 202.01 72.5814 203.621C72.5814 207.1 73.0216 210.477 73.8425 213.704ZM77.7626 223.534 100.043 208.924 74.0035 214.322C74.8845 217.568 76.1545 220.657 77.7626 223.534ZM83.9806 231.943 104.628 213.246 101.785 208.561 101.743 208.57 78.0755 224.089C79.7306 226.942 81.7155 229.578 83.9806 231.943ZM92.1115 238.521 104.581 214.147 84.4245 232.4C86.7285 234.734 89.3095 236.792 92.1115 238.521ZM102.525 243.096 109.475 221.228 105.242 214.256 92.6606 238.854C95.7124 240.675 99.0255 242.112 102.525 243.096ZM112.588 244.601 111.396 224.391 109.913 221.949 103.139 243.262C106.17 244.063 109.333 244.523 112.588 244.601ZM113.602 244.615C116.84 244.615 119.989 244.241 123.011 243.525L112.103 225.558 113.232 244.612C113.355 244.612 113.477 244.615 113.602 244.615ZM230.543 231.624 244.566 218.924 227.399 227.929C228.375 229.223 229.423 230.454 230.543 231.624ZM238.675 238.203 249.99 216.08 246.821 217.74 230.99 232.081C233.29 234.413 235.871 236.473 238.675 238.203ZM249.087 242.777 257.497 216.304 257.259 212.265 250.97 215.564 239.221 238.535C242.279 240.357 245.589 241.793 249.087 242.777ZM259.152 244.282 257.603 218.081 249.704 242.943C252.73 243.744 255.893 244.202 259.152 244.282ZM260.165 244.296C263.705 244.296 267.142 243.844 270.423 242.999L264.476 215.719 260.885 210.363 259.89 210.887 258.144 216.385 259.79 244.293C259.915 244.293 260.041 244.296 260.165 244.296ZM280.145 239.09 265.446 217.164 271.037 242.83C274.245 241.945 277.301 240.684 280.145 239.09ZM288.694 232.719 269.993 211.217 264.584 208.426 263.65 208.913 265.078 215.464 280.7 238.774C283.611 237.085 286.293 235.045 288.694 232.719ZM295.371 224.313 271.526 212.007 289.151 232.273C291.536 229.891 293.626 227.216 295.371 224.313ZM268.024 203.713 268.269 204.029 268.216 204.425 268.187 204.644 270.933 204.517 267.852 203.494ZM266.031 201.148 266.109 201.248 266.636 201.927 271.484 198.67 265.15 200.014ZM264.082 198.642 266.126 194.741 263.136 197.425ZM261.465 196.69 261.257 192.504 259.904 196.471ZM257.935 197.126 255.552 193.419 256.463 197.802ZM254.981 198.479 250.536 196.244 253.257 199.269ZM144.406 234.629 142.902 232.273 132.736 216.338 132.058 215.27 125.768 205.412 125.135 204.42 123.081 201.198 122.886 201.126 122.153 200.852 119.97 200.039 119.199 199.754 113.708 201.173 113.384 201.256 113.481 201.414 114.97 203.832 116.421 206.194 117.334 207.671 117.98 208.722 135.981 237.956 137.068 239.722C137.331 240.152 137.604 240.567 137.891 240.975 142.689 247.845 150.377 251.656 158.325 251.656 162.059 251.656 165.851 250.814 169.428 249.053L220.612 223.859 223.821 222.279 231.557 218.472 236.237 216.166 254.557 207.15 257.522 205.689 257.695 205.603 258.771 205.077 261.387 203.787 262.429 203.275 262.888 203.047 263.481 202.756 264.349 202.329 265.163 201.93 265.351 201.836 265.153 201.578 264.106 200.236 263.595 199.574 262.422 198.065 262.183 197.761 261.514 197.666 259.638 197.4 259.578 197.428 258.46 197.938 256.821 198.689 256.071 199.033 253.928 200.014 253.323 200.292 252.488 200.674 250.883 201.409 249.401 202.088 248.543 202.482 228.309 211.747 225.705 212.939 220.895 215.14 217.615 216.643 165.042 240.717C162.669 241.804 160.03 242.43 157.4 242.43 152.675 242.43 147.97 240.407 144.848 235.378 144.696 235.136 144.55 234.887 144.406 234.629ZM123.128 200.195 124.921 198.989 121.717 199.668ZM115.673 199.676 117.376 199.235 119.566 195.06 115.62 198.601ZM113.916 200.131 115.042 199.84 115.008 199.149ZM113.534 199.618 114.97 198.329 114.695 192.823 112.776 198.443ZM112.791 200.281 113.051 200.048 112.514 199.213 112.242 200.006ZM110.068 198.914 111.668 199.718 112.073 198.528 108.99 193.738ZM107.859 200.879 109.799 200.76 109.505 199.344 103.975 196.563ZM103.842 202.734 107.759 201.722 107.59 201.534 101.297 201.911ZM111.459 200.328 110.235 199.709 110.445 200.721 111.341 200.671ZM247.406 216.351 249.661 215.168 250.748 214.599 251.726 214.086 257.198 211.217 257.819 210.89 259.502 210.008 260.303 209.587 260.322 209.526 260.348 209.565 260.916 209.266 262.852 208.251 263.439 207.943 263.544 207.888 264.235 207.525 265.986 206.607 266.566 206.302 267.037 206.055 267.132 205.332 267.217 204.688 267.267 204.3 266.23 202.967 265.953 202.609 265.775 202.695 264.73 203.211 264.135 203.505 263.538 203.796 262.63 204.245 262.039 204.533 261.884 204.611 258.232 206.407 257.573 206.732 256.952 207.039 254.786 208.104 253.827 208.578 229.7 220.454 225.02 222.755 224.275 223.124 221.064 224.704 169.853 249.913C166.213 251.706 162.334 252.613 158.325 252.613 153.973 252.613 149.657 251.501 145.844 249.4 142.373 247.484 139.371 244.77 137.083 241.491 136.795 241.077 136.518 240.653 136.253 240.224L135.173 238.471 117.037 209.016 115.684 206.82 115.313 206.216 114.454 204.819 112.569 201.758 112.488 201.628 112.414 201.506 110.079 202.11 109.175 202.343 108.482 202.523 105.544 203.283 104.395 203.58 103.673 203.768 101.854 206.831 102.245 207.477 102.779 208.356 105.35 212.592 105.752 213.255 109.86 220.019 110.298 220.74 111.273 222.348 111.98 223.515 123.775 242.94 124.415 243.994C124.921 244.831 125.463 245.641 126.031 246.422 132.725 255.626 143.355 260.736 154.246 260.736H154.249C159.708 260.736 165.228 259.455 170.36 256.763L223.635 228.821 226.822 227.147ZM257.88 211.941 258.039 214.61 259.089 211.306ZM261.453 210.067 264.106 214.023 263.062 209.224ZM265.275 208.062 268.858 209.911 266.632 207.35ZM299.739 214.092 272.621 205.079 268.104 205.287 267.988 206.18 267.924 206.673 267.483 206.904 267.212 207.048 270.395 210.707 295.695 223.759C297.433 220.757 298.799 217.51 299.739 214.092ZM301.18 203.771 274.4 204.999 299.905 213.474C300.701 210.363 301.141 207.114 301.18 203.771ZM260.165 247.867C245.42 247.867 232.32 240.673 224.197 229.609L170.805 257.611C165.713 260.281 159.989 261.695 154.249 261.695 148.196 261.695 142.187 260.148 136.882 257.226 132.198 254.648 128.151 251.038 125.052 246.697 121.399 247.667 117.558 248.186 113.602 248.186 89.0124 248.186 69.0046 228.181 69.0046 203.591 69.0046 179.003 89.0124 158.996 113.602 158.996 138.192 158.996 158.198 179.003 158.198 203.591 158.198 215.669 153.37 226.642 145.545 234.679 148.192 239.065 152.382 241.474 157.4 241.474 159.81 241.474 162.318 240.911 164.646 239.844L217.338 215.717C216.185 211.766 215.569 207.588 215.569 203.272 215.569 178.684 235.575 158.677 260.165 158.677 284.753 158.677 304.76 178.684 304.76 203.272 304.76 227.862 284.753 247.867 260.165 247.867" fill="#ffffff"/>
<path transform="matrix(1,0,0,-1,9,377.504)" d="M183.894 238.344H183.891L183.045 238.765 182.617 238.976 181.896 239.337 182.305 240.131 183.023 239.771 183.441 239.563 184.293 239.139C184.309 239.081 184.318 239.017 184.318 238.954 184.318 238.673 184.143 238.433 183.894 238.344ZM182.978 236.384 182.132 236.806 181.542 237.099V237.102L180.913 237.412 181.318 238.207 181.998 237.868 182.525 237.607 183.122 237.31 183.125 237.307 183.377 237.182C183.387 237.153 183.393 237.125 183.399 237.093 183.402 237.061 183.406 237.029 183.406 236.997 183.406 236.716 183.227 236.477 182.978 236.384ZM186.147 238.596C186.147 238.973 186.029 239.321 185.831 239.608L184.283 240.377 181.168 241.928 178.66 237.019 180.297 236.206 181.95 235.385C181.95 235.382 181.953 235.382 181.953 235.382L183.071 234.824H183.074C183.131 234.817 183.195 234.814 183.256 234.814 184.242 234.814 185.04 235.615 185.04 236.601 185.04 236.713 185.03 236.825 185.008 236.93 185.675 237.189 186.147 237.84 186.147 238.596" fill="#ffffff"/>
<path transform="matrix(1,0,0,-1,9,377.504)" d="M201.103 229.55H201.1L200.254 229.971 199.826 230.183 199.105 230.543 199.514 231.337 200.232 230.977 200.65 230.77 201.502 230.346C201.518 230.287 201.528 230.223 201.528 230.16 201.528 229.88 201.352 229.639 201.103 229.55ZM200.187 227.591 199.341 228.012 198.751 228.305V228.309L198.122 228.618 198.527 229.413 199.207 229.074 199.734 228.813 200.331 228.516 200.334 228.513 200.586 228.388C200.596 228.36 200.602 228.332 200.608 228.299 200.611 228.267 200.615 228.235 200.615 228.203 200.615 227.923 200.436 227.684 200.187 227.591ZM203.356 229.802C203.356 230.179 203.238 230.528 203.04 230.814L201.492 231.583 198.377 233.135 195.869 228.225 197.506 227.413 199.159 226.591C199.159 226.588 199.162 226.588 199.162 226.588L200.28 226.03H200.283C200.34 226.024 200.404 226.02 200.465 226.02 201.451 226.02 202.249 226.821 202.249 227.807 202.249 227.919 202.239 228.031 202.217 228.136 202.884 228.396 203.356 229.046 203.356 229.802" fill="#ffffff"/>
<path transform="matrix(1,0,0,-1,9,377.504)" d="M219.337 222.824 218.759 221.694 218.427 221.857 215.584 223.274 215.193 222.511 218.037 221.094 217.511 220.063 214.668 221.48 214.275 220.714 217.119 219.3 217.448 219.138 216.825 217.918 216.495 218.081 213.653 219.498 212.053 220.293 214.562 225.199 216.161 224.404 219.008 222.987Z" fill="#ffffff"/>
<path transform="matrix(1,0,0,-1,9,377.504)" d="M171.494 246.633 168.982 241.727 167.22 242.602 169.732 247.511Z" fill="#ffffff"/>
<path transform="matrix(1,0,0,-1,9,377.504)" d="M206.635 229.153 204.123 224.247 202.361 225.122 204.873 230.031Z" fill="#ffffff"/>
<path transform="matrix(1,0,0,-1,9,377.504)" d="M179.636 242.582 177.127 237.674 175.436 238.514 176.31 240.221 173.929 239.266 173.457 242.468 172.247 240.103 170.578 240.933 173.087 245.839H173.091L174.631 245.073 175.241 241.329 178.27 243.262Z" fill="#ffffff"/>
<path transform="matrix(1,0,0,-1,9,377.504)" d="M192.888 235.989 191.53 233.336C190.892 232.085 189.365 231.583 188.109 232.208L187.103 232.708C185.824 233.343 185.312 234.901 185.962 236.17L187.293 238.772 188.978 237.932 187.879 235.79C187.701 235.532 187.612 235.208 187.657 234.859 187.73 234.291 188.185 233.817 188.751 233.722 189.418 233.611 190.015 233.997 190.225 234.571L191.347 236.754Z" fill="#ffffff"/>
<path transform="matrix(1,0,0,-1,9,377.504)" d="M210.692 224.208 211.203 220.713 209.594 221.514 209.179 224.326 208.19 224.818 207.127 222.743 205.445 223.579 207.957 228.488 209.642 227.652 208.729 225.871 209.849 225.316 211.95 226.5H211.953L213.446 225.759Z" fill="#ffffff"/>
<path transform="matrix(1,0,0,-1,9,377.504)" d="M196.208 233.377C196.226 233.786 196.289 234.763 196.289 234.763 196.289 234.763 196.183 234.781 196.039 234.815 195.285 234.996 194.518 235.121 193.857 234.588 193.207 234.063 193.172 233.348 193.42 232.611 193.728 231.694 193.308 231.058 192.274 231.366 192.193 231.39 191.931 231.507 191.931 231.507 191.931 231.507 191.904 231.358 191.864 231.24 191.775 230.978 191.473 230.091 191.473 230.091 191.473 230.091 192.239 229.803 192.812 229.751 192.887 229.745 192.964 229.742 193.04 229.741 194.134 229.728 195.478 230.488 195.043 232.091 194.983 232.31 194.946 232.536 194.914 232.762 194.825 233.389 195.126 233.671 195.736 233.531 195.881 233.498 196.019 233.439 196.208 233.377" fill="#ffffff"/>
<path transform="matrix(1,0,0,-1,9,377.504)" d="M145.122 117.739 145.112 117.735 141.703 117.732 139.983 117.725 137.074 117.727 137.114 120.95 140.013 120.942 141.696 120.945 145.13 120.948C145.274 120.787 145.408 120.596 145.511 120.391 145.963 119.484 145.782 118.428 145.122 117.739ZM145.32 109.938H141.911L139.532 109.934 139.527 109.945 136.999 109.932 137.028 113.15 139.768 113.152 141.889 113.155 144.293 113.158 144.309 113.152 145.323 113.156C145.4 113.079 145.467 112.998 145.539 112.905 145.601 112.806 145.662 112.708 145.714 112.605 146.166 111.698 145.974 110.638 145.32 109.938ZM151.99 122.18C151.384 123.396 150.442 124.329 149.341 124.938L143.106 124.929 130.553 124.921 130.357 105.038 136.953 105.046 143.61 105.059C143.615 105.049 143.626 105.055 143.626 105.055L148.131 105.049 148.141 105.055C148.337 105.126 148.548 105.22 148.744 105.316 151.928 106.904 153.214 110.775 151.626 113.958 151.446 114.319 151.235 114.665 150.994 114.968 152.731 116.876 153.208 119.738 151.99 122.18" fill="#ffffff"/>
<path transform="matrix(1,0,0,-1,9,377.504)" d="M214.829 117.056 214.818 117.051 211.41 117.049 209.691 117.041 206.781 117.044 206.821 120.267 209.72 120.259 211.402 120.262 214.837 120.264C214.982 120.104 215.115 119.913 215.218 119.707 215.669 118.8 215.489 117.745 214.829 117.056ZM215.027 109.255 211.618 109.254 209.24 109.251 209.234 109.262 206.705 109.249 206.735 112.467 209.475 112.469 211.595 112.472 214 112.475 214.016 112.469 215.03 112.473C215.106 112.396 215.174 112.314 215.246 112.221 215.307 112.123 215.37 112.025 215.421 111.922 215.873 111.015 215.68 109.955 215.027 109.255ZM221.696 121.497C221.091 122.713 220.15 123.646 219.047 124.255L212.813 124.246 200.259 124.238 200.064 104.354 206.66 104.363 213.317 104.376C213.323 104.366 213.333 104.371 213.333 104.371L217.838 104.366 217.848 104.371C218.043 104.443 218.255 104.536 218.451 104.633 221.635 106.221 222.92 110.091 221.333 113.275 221.152 113.636 220.942 113.981 220.701 114.285 222.438 116.193 222.915 119.055 221.696 121.497" fill="#ffffff"/>
<path transform="matrix(1,0,0,-1,9,377.504)" d="M284.515 124.696 284.469 120.118 283.135 120.11 271.674 120.107 271.645 117.016 283.106 117.02 283.066 112.844 271.605 112.842 271.571 109.737 283.027 109.75 284.35 109.753 284.304 104.816 282.98 104.812 271.519 104.81 265.078 104.801 265.279 124.675 271.72 124.684 283.192 124.692Z" fill="#ffffff"/>
<path transform="matrix(1,0,0,-1,9,377.504)" d="M91.7521 124.535 91.5401 104.656 84.4449 104.643 84.6522 124.532Z" fill="#ffffff"/>
<path transform="matrix(1,0,0,-1,9,377.504)" d="M233.326 124.68 233.114 104.801 226.018 104.788 226.226 124.677Z" fill="#ffffff"/>
<path transform="matrix(1,0,0,-1,9,377.504)" d="M124.555 124.568 124.359 104.684 117.547 104.67 117.621 111.59 111.472 104.677 104.793 114.25 104.696 104.668 97.9719 104.66 98.1729 124.534 98.1831 124.539 104.392 124.548 112.387 113.444 119.051 124.563Z" fill="#ffffff"/>
<path transform="matrix(1,0,0,-1,9,377.504)" d="M177.948 124.614 177.836 113.864C177.784 108.8 173.667 104.721 168.602 104.716L164.55 104.712C159.404 104.706 155.244 108.905 155.297 114.051L155.407 124.592 162.198 124.595 162.096 115.912C161.94 114.792 162.173 113.605 162.88 112.55 164.031 110.828 166.263 110.034 168.242 110.64 170.573 111.355 171.88 113.562 171.632 115.752L171.739 124.606Z" fill="#ffffff"/>
<path transform="matrix(1,0,0,-1,9,377.504)" d="M254.382 115.246 261.657 104.786 255.174 104.783 249.308 113.192 245.323 113.186 245.232 104.778 238.456 104.769 238.662 124.659 245.449 124.672 245.369 117.454 249.879 117.465 254.752 124.668 254.763 124.673 260.776 124.687Z" fill="#ffffff"/>
<path transform="matrix(1,0,0,-1,9,377.504)" d="M192.869 121.528C192.267 122.877 190.901 126.133 190.901 126.133 190.901 126.133 190.529 126.019 190.01 125.899 187.283 125.27 184.606 124.438 183.332 121.655 182.077 118.913 183.115 116.545 185.101 114.567 187.573 112.104 187.24 109.376 183.405 108.704 183.109 108.652 182.073 108.608 182.073 108.608 182.073 108.608 182.225 108.083 182.286 107.636 182.421 106.647 182.873 103.299 182.873 103.299 182.873 103.299 185.812 103.601 187.742 104.357 187.996 104.457 188.247 104.572 188.494 104.691 192.049 106.41 195.164 111.029 191.178 115.501 190.633 116.112 190.148 116.783 189.682 117.458 188.385 119.341 188.904 120.735 191.097 121.266 191.617 121.391 192.159 121.426 192.869 121.528" fill="#ffffff"/>
<path transform="matrix(1,0,0,-1,9,377.504)" d="M40.2469 252.139 42.9372 257.392C43.1266 257.762 43.2077 258.13 43.1841 258.502 43.1586 258.871 43.0319 259.213 42.8046 259.529 42.5769 259.845 42.2634 260.108 41.8663 260.311 41.4575 260.521 41.0593 260.627 40.6678 260.633 40.2744 260.635 39.9246 260.541 39.6108 260.347 39.295 260.148 39.0424 259.864 38.8488 259.486L36.1585 254.233 33.173 255.762 35.8237 260.938C36.3472 261.96 37.0179 262.755 37.8371 263.32 38.6546 263.889 39.5529 264.188 40.534 264.231 41.5168 264.268 42.5069 264.034 43.5095 263.521 44.5124 263.007 45.2815 262.34 45.8181 261.525 46.3527 260.706 46.6311 259.804 46.6466 258.808 46.66 257.817 46.4063 256.808 45.8827 255.786L43.232 250.61ZM32.4502 254.35 34.0342 257.443 50.4649 249.029 48.8806 245.936ZM44.816 266.64 46.8298 269.781 57.9234 262.669 55.9097 259.528ZM51.9075 270.901C51.6742 270.85 51.4525 270.745 51.2521 270.585 51.0457 270.424 50.855 270.206 50.6818 269.936 50.3031 269.345 50.2041 268.765 50.3753 268.197 50.5502 267.627 50.9737 267.124 51.6487 266.691L48.6204 268.319C48.1567 269.049 47.8973 269.776 47.8423 270.501 47.7848 271.222 47.9463 271.875 48.3231 272.463 48.6176 272.922 48.9594 273.296 49.3461 273.577 49.7307 273.856 50.1565 274.046 50.6188 274.141ZM59.3308 279.594C58.8362 279.946 58.333 280.053 57.8288 279.912 57.327 279.774 56.8587 279.4 56.4267 278.793 56.143 278.394 55.9227 277.949 55.7745 277.464 55.6302 276.977 55.5616 276.5 55.582 276.028L52.6014 275.499C52.4177 276.273 52.4381 277.11 52.6686 278.009 52.8965 278.905 53.3112 279.78 53.9215 280.638 54.5871 281.574 55.3122 282.265 56.0962 282.702 56.8823 283.143 57.6969 283.324 58.5428 283.249 59.3855 283.171 60.2314 282.835 61.0719 282.237L67.9725 277.33 66.1394 274.752ZM64.1679 271.651C63.3489 270.499 62.4631 269.837 61.5093 269.654 60.5574 269.475 59.5233 269.785 58.4073 270.579 57.344 271.335 56.7723 272.22 56.6972 273.236 56.6155 274.251 57.0314 275.396 57.9404 276.674L59.8516 279.362 62.1156 277.97 60.1092 275.148C59.8028 274.717 59.6616 274.339 59.6778 274.003 59.6968 273.671 59.8768 273.378 60.2226 273.132 60.5721 272.883 60.929 272.831 61.2918 272.983 61.6524 273.131 62.0223 273.479 62.4093 274.023 62.9493 274.782 63.2662 275.407 63.3543 275.898 63.445 276.392 63.307 276.766 62.9433 277.025L64.66 276.134C65.0146 275.818 65.2175 275.408 65.2623 274.902 65.3108 274.395 65.2309 273.856 65.031 273.291 64.8286 272.722 64.5418 272.176 64.1679 271.651ZM74.0625 283.971C73.2427 283.025 72.3617 282.372 71.4135 282.012 70.4687 281.65 69.4959 281.592 68.4986 281.837 67.5071 282.082 66.5218 282.626 65.5489 283.468L64.4845 284.391C63.5182 285.227 62.8464 286.12 62.4685 287.06 62.0938 288.004 62.0184 288.969 62.246 289.953 62.473 290.937 62.994 291.902 63.8141 292.849 64.2849 293.392 64.7923 293.853 65.3369 294.23 65.8783 294.603 66.433 294.88 67.0042 295.056 67.5746 295.238 68.1384 295.306 68.6968 295.269L68.8779 292.143C68.4454 292.093 68.025 291.959 67.6165 291.739 67.2114 291.523 66.8477 291.236 66.5385 290.879 65.9625 290.214 65.6946 289.54 65.7334 288.87 65.772 288.2 66.1144 287.582 66.763 287.021L67.8274 286.099C68.4924 285.522 69.1656 285.261 69.8406 285.312 70.5161 285.363 71.1476 285.722 71.7236 286.387 72.0386 286.75 72.2676 287.154 72.417 287.598 72.5664 288.042 72.6171 288.491 72.5723 288.942L75.7879 289.127C75.8951 288.575 75.8988 288.01 75.8027 287.423 75.7003 286.835 75.5056 286.253 75.2097 285.666 74.9166 285.083 74.5333 284.515 74.0625 283.971ZM82.9193 293.018C82.0474 292.186 81.1519 291.644 80.2259 291.378 79.3003 291.118 78.3814 291.146 77.4663 291.459 76.5544 291.775 75.6768 292.369 74.8426 293.244L73.3623 294.797C72.5369 295.663 71.9946 296.558 71.7284 297.478 71.4654 298.401 71.4841 299.317 71.7939 300.222 72.1037 301.135 72.6914 302 73.5633 302.831 74.4321 303.66 75.3279 304.208 76.2506 304.472 77.1735 304.741 78.0891 304.716 78.9953 304.406 79.9044 304.099 80.7701 303.512 81.5956 302.646L83.1025 301.065C83.9307 300.197 84.4792 299.301 84.7423 298.378 85.0085 297.458 84.9898 296.542 84.6828 295.627 84.3761 294.718 83.7884 293.846 82.9193 293.018ZM80.5986 295.433C81.1069 295.918 81.3583 296.445 81.3566 297.012 81.358 297.576 81.0984 298.131 80.587 298.667L79.0801 300.248C78.5718 300.781 78.0358 301.061 77.4726 301.086 76.909 301.112 76.3733 300.883 75.865 300.398 75.3633 299.92 75.1122 299.399 75.1139 298.838 75.1158 298.277 75.3727 297.731 75.8809 297.198L77.3878 295.617C77.8992 295.081 78.438 294.792 78.9951 294.761 79.5549 294.726 80.0906 294.949 80.5986 295.433ZM79.9336 308.419 82.5605 310.484 89.4251 305.528 86.5843 313.646 88.1991 314.915 95.4147 310.235 92.2229 318.077 94.8467 320.139 99.7963 307.268 97.759 305.668 90.2245 310.675 93.3092 302.171 91.2716 300.569ZM98.6057 322.102 101.622 323.836 108.19 312.412 105.174 310.678ZM107.797 321.398C107.478 321.954 107.068 322.293 106.575 322.42 106.076 322.548 105.533 322.441 104.947 322.104 104.388 321.782 104.05 321.378 103.921 320.889 103.796 320.403 103.899 319.876 104.223 319.313L102.534 321.711C102.467 322.627 102.569 323.406 102.845 324.039 103.119 324.677 103.62 325.204 104.344 325.621 105.547 326.312 106.712 326.442 107.839 326.011 108.967 325.58 109.957 324.624 110.807 323.144L114.795 316.209 111.778 314.475ZM109.29 334.063 112.387 335.649 113.973 332.552 110.876 330.966ZM111.698 329.361 114.795 330.947 120.802 319.218 117.705 317.632ZM127.386 331.094C127.164 331.659 126.801 332.023 126.301 332.18 125.806 332.339 125.209 332.281 124.516 332.007 124.06 331.828 123.633 331.576 123.244 331.25 122.858 330.921 122.54 330.558 122.299 330.151L119.513 331.335C119.781 332.083 120.255 332.773 120.939 333.401 121.619 334.028 122.443 334.535 123.423 334.921 124.491 335.342 125.476 335.526 126.371 335.464 127.271 335.404 128.052 335.111 128.72 334.587 129.384 334.062 129.909 333.319 130.288 332.359L133.393 324.482 130.451 323.322ZM127.106 321.798C125.792 321.28 124.688 321.208 123.789 321.576 122.894 321.945 122.196 322.769 121.694 324.043 121.215 325.257 121.219 326.31 121.71 327.203 122.196 328.098 123.169 328.831 124.628 329.406L127.696 330.615 128.834 328.214 125.613 326.944C125.121 326.75 124.797 326.51 124.627 326.219 124.461 325.931 124.452 325.587 124.608 325.192 124.765 324.793 125.036 324.555 125.423 324.484 125.805 324.411 126.306 324.501 126.927 324.746 127.794 325.088 128.4 325.439 128.742 325.802 129.087 326.166 129.176 326.555 129.012 326.97L129.965 325.287C130.089 324.829 130.036 324.374 129.798 323.926 129.561 323.474 129.201 323.067 128.724 322.702 128.245 322.336 127.707 322.035 127.106 321.798ZM150.184 337.988 150.937 334.725 142.129 332.692 141.376 335.956ZM168.306 332.422C167.429 332.31 166.566 332.292 165.706 332.362 164.849 332.432 164.03 332.59 163.256 332.837 162.477 333.083 161.768 333.408 161.127 333.812L162.364 336.865C163.143 336.374 164.016 336.031 164.981 335.83 165.94 335.633 166.91 335.599 167.886 335.723 169.008 335.866 169.857 336.166 170.431 336.628 171.006 337.089 171.247 337.666 171.159 338.363L171.157 338.376C171.095 338.865 170.909 339.231 170.593 339.483 170.282 339.732 169.894 339.897 169.43 339.973 168.969 340.054 168.383 340.102 167.672 340.121 167.645 340.126 167.619 340.127 167.602 340.125 167.581 340.122 167.554 340.123 167.527 340.129L167.247 340.132C165.997 340.17 164.952 340.282 164.108 340.467 163.266 340.658 162.514 341.077 161.863 341.733 161.208 342.388 160.793 343.383 160.623 344.716L160.622 344.729C160.472 345.911 160.609 346.959 161.031 347.865 161.453 348.771 162.142 349.508 163.091 350.079 164.041 350.645 165.234 351.024 166.661 351.205 167.314 351.289 167.995 351.296 168.698 351.233 169.4 351.169 170.099 351.035 170.788 350.834 171.478 350.629 172.145 350.365 172.785 350.036L171.695 346.931C170.928 347.327 170.14 347.612 169.341 347.781 168.538 347.954 167.786 347.994 167.081 347.904 166.019 347.769 165.224 347.493 164.688 347.071 164.152 346.645 163.926 346.123 164.007 345.491L164.008 345.478C164.075 344.949 164.279 344.551 164.623 344.285 164.963 344.018 165.365 343.838 165.826 343.752 166.291 343.667 166.934 343.596 167.762 343.539 167.797 343.535 167.829 343.53 167.864 343.531 167.899 343.531 167.933 343.531 167.969 343.527 168.017 343.524 168.071 343.518 168.115 343.51 168.164 343.508 168.212 343.501 168.265 343.499 169.455 343.418 170.457 343.266 171.272 343.042 172.091 342.819 172.806 342.381 173.417 341.729 174.029 341.077 174.416 340.131 174.574 338.888L174.577 338.862C174.725 337.697 174.577 336.661 174.136 335.762 173.696 334.858 172.981 334.125 171.993 333.555 171.003 332.987 169.772 332.608 168.306 332.422ZM183.854 333.3C182.585 333.268 181.492 333.471 180.579 333.911 179.666 334.348 178.965 335.002 178.466 335.878 177.972 336.75 177.706 337.805 177.675 339.048L177.637 340.534C177.604 341.838 177.806 342.957 178.233 343.891 178.66 344.825 179.305 345.544 180.16 346.046 181.014 346.549 182.056 346.818 183.282 346.849 184.434 346.878 185.425 346.617 186.263 346.062 187.096 345.507 187.741 344.686 188.198 343.601 188.654 342.516 188.899 341.2 188.939 339.654L188.96 338.787 179.95 338.56 179.891 340.907 185.726 341.055 185.683 341.362C185.569 342.117 185.316 342.7 184.92 343.107 184.523 343.513 184.007 343.703 183.362 343.687 182.526 343.666 181.882 343.403 181.432 342.893 180.985 342.379 180.773 341.667 180.796 340.753L180.839 339.081C180.861 338.184 181.13 337.493 181.645 337.016 182.16 336.539 182.872 336.31 183.777 336.333 184.241 336.345 184.702 336.439 185.153 336.615 185.608 336.791 186.014 337.04 186.379 337.352L188.704 335.391C188.035 334.75 187.276 334.245 186.432 333.882 185.583 333.518 184.725 333.323 183.854 333.3ZM193.136 346.453 196.856 346.17 195.856 333.03 192.136 333.313ZM200.25 342.231C200.094 342.412 199.897 342.557 199.661 342.658 199.421 342.763 199.139 342.828 198.82 342.852 198.12 342.906 197.562 342.717 197.144 342.297 196.725 341.873 196.483 341.262 196.422 340.462L196.418 343.9C196.84 344.654 197.358 345.228 197.97 345.62 198.578 346.013 199.229 346.18 199.925 346.127 200.469 346.086 200.96 345.962 201.392 345.755 201.819 345.549 202.189 345.265 202.491 344.902ZM204.404 345.662 207.693 345.075 208.562 336.653 212.731 344.175 214.753 343.814 216.061 335.314 219.791 342.915 223.076 342.328 216.762 330.069 214.211 330.525 212.936 339.481 208.64 331.519 206.089 331.975ZM227.766 346.267 231.114 345.317 230.163 341.969 226.816 342.92ZM226.323 341.186 229.671 340.235 226.071 327.559 222.723 328.51ZM233.889 324.851C233.146 325.103 232.441 325.414 231.78 325.784 231.12 326.159 230.524 326.575 229.995 327.038 229.462 327.507 229.02 327.999 228.671 328.52L231.561 330.369C232.034 329.779 232.561 329.271 233.148 328.84 233.735 328.412 234.327 328.093 234.918 327.893 235.689 327.632 236.314 327.517 236.799 327.544 237.28 327.574 237.574 327.74 237.678 328.048 237.773 328.327 237.755 328.571 237.619 328.777 237.483 328.983 237.279 329.166 237.013 329.325 236.74 329.481 236.356 329.671 235.852 329.896 235.714 329.961 235.571 330.028 235.429 330.094 235.287 330.161 235.141 330.228 234.994 330.296 234.963 330.311 234.933 330.331 234.897 330.347 234.862 330.364 234.829 330.375 234.796 330.386 233.91 330.823 233.213 331.224 232.71 331.591 232.212 331.956 231.85 332.453 231.629 333.086 231.409 333.719 231.463 334.515 231.785 335.467 232.067 336.301 232.51 336.947 233.114 337.406 233.712 337.862 234.448 338.116 235.311 338.167 236.179 338.217 237.155 338.06 238.234 337.695 238.871 337.48 239.477 337.201 240.066 336.86 240.651 336.521 241.191 336.132 241.688 335.694 242.182 335.261 242.617 334.789 242.992 334.287L240.224 332.557C239.783 333.05 239.291 333.476 238.757 333.845 238.219 334.215 237.677 334.494 237.136 334.677 236.471 334.902 235.927 334.999 235.506 334.972 235.085 334.945 234.828 334.794 234.737 334.523 234.666 334.314 234.709 334.117 234.867 333.935 235.025 333.753 235.238 333.585 235.513 333.437 235.791 333.284 236.198 333.082 236.734 332.827 236.805 332.794 236.876 332.761 236.943 332.729 237.014 332.696 237.081 332.664 237.152 332.631 237.182 332.612 237.219 332.599 237.256 332.587 237.297 332.573 237.333 332.556 237.363 332.537 238.293 332.094 239.032 331.684 239.584 331.3 240.132 330.918 240.534 330.389 240.782 329.715 241.033 329.04 240.984 328.192 240.637 327.165 240.344 326.299 239.883 325.627 239.26 325.152 238.633 324.678 237.866 324.411 236.952 324.359 236.042 324.306 235.022 324.468 233.889 324.851ZM254.586 328.034 260.306 325.105C260.622 324.943 260.941 324.882 261.262 324.918 261.585 324.951 261.885 325.08 262.168 325.31 262.453 325.534 262.697 325.838 262.9 326.216 263.097 326.601 263.202 326.976 263.221 327.336 263.24 327.697 263.171 328.019 263.009 328.302 262.851 328.582 262.605 328.806 262.285 328.969L256.565 331.899 258.094 334.884 264.061 331.828C264.963 331.366 265.653 330.755 266.13 329.994 266.61 329.238 266.847 328.391 266.842 327.459 266.839 326.521 266.587 325.564 266.086 324.584 265.584 323.605 264.955 322.841 264.197 322.294 263.442 321.741 262.613 321.445 261.718 321.388 260.82 321.336 259.921 321.539 259.026 321.997L253.059 325.053ZM256.864 335.514 259.957 333.93 251.536 317.488 248.443 319.072ZM256.78 323.79 260.353 322.612 260.87 312.708 257.121 314.628ZM266.982 308.248C265.968 308.898 265.229 309.64 264.751 310.476 264.28 311.314 264.089 312.213 264.177 313.177 264.267 314.138 264.637 315.131 265.289 316.149L266.447 317.955C267.092 318.962 267.834 319.701 268.665 320.177 269.499 320.651 270.393 320.85 271.347 320.764 272.306 320.679 273.286 320.313 274.3 319.663 275.311 319.015 276.056 318.275 276.53 317.44 277.011 316.608 277.203 315.712 277.117 314.758 277.034 313.802 276.668 312.822 276.023 311.815L274.844 309.977C274.196 308.966 273.456 308.221 272.622 307.747 271.791 307.27 270.897 307.072 269.935 307.153 268.979 307.236 267.993 307.6 266.982 308.248ZM268.779 311.075C269.37 310.696 269.942 310.576 270.493 310.713 271.041 310.845 271.519 311.229 271.919 311.852L273.097 313.691C273.495 314.311 273.639 314.898 273.531 315.451 273.423 316.005 273.073 316.471 272.482 316.85 271.898 317.224 271.332 317.345 270.788 317.21 270.243 317.075 269.774 316.697 269.376 316.077L268.198 314.238C267.798 313.614 267.645 313.022 267.746 312.474 267.845 311.921 268.189 311.454 268.779 311.075ZM281.841 314.505 284.366 312.318 280.803 304.637 288.234 308.967 289.786 307.622 286.561 299.65 293.655 304.271 296.177 302.087 284.48 294.785 282.521 296.481 286.008 304.829 278.243 300.187 276.285 301.883ZM292.67 286.378C291.793 287.297 291.209 288.243 290.923 289.215 290.633 290.184 290.647 291.143 290.961 292.101 291.275 293.053 291.879 293.958 292.779 294.816L293.855 295.842C294.799 296.742 295.763 297.344 296.742 297.655 297.721 297.966 298.687 297.97 299.633 297.675 300.579 297.379 301.478 296.788 302.325 295.9 303.12 295.066 303.592 294.157 303.743 293.163 303.891 292.173 303.716 291.144 303.219 290.077 302.721 289.01 301.911 287.944 300.792 286.877L300.164 286.279 293.944 292.802 295.645 294.423 299.672 290.198 299.871 290.435C300.354 291.028 300.616 291.607 300.651 292.173 300.686 292.739 300.481 293.25 300.035 293.717 299.458 294.323 298.831 294.623 298.15 294.615 297.469 294.6 296.8 294.279 296.138 293.648L294.927 292.494C294.278 291.875 293.946 291.211 293.939 290.51 293.931 289.808 294.24 289.126 294.865 288.471 295.185 288.135 295.564 287.857 295.998 287.641 296.434 287.422 296.89 287.288 297.367 287.228L297.476 284.188C296.551 284.253 295.668 284.476 294.831 284.858 293.991 285.243 293.271 285.747 292.67 286.378ZM308.717 288.492 311.023 285.559 300.661 277.417 298.356 280.35ZM310.413 280.395C310.441 280.632 310.415 280.876 310.33 281.118 310.245 281.366 310.102 281.617 309.904 281.869 309.471 282.421 308.955 282.705 308.362 282.73 307.767 282.752 307.152 282.517 306.522 282.022L309.053 284.348C309.895 284.546 310.667 284.552 311.37 284.366 312.07 284.183 312.634 283.816 313.065 283.268 313.403 282.838 313.643 282.393 313.782 281.935 313.919 281.48 313.959 281.016 313.896 280.548ZM307.84 267.301C307.19 268.315 306.828 269.298 306.743 270.257 306.664 271.215 306.866 272.112 307.348 272.951 307.831 273.786 308.581 274.535 309.599 275.187L311.405 276.345C312.412 276.991 313.394 277.353 314.348 277.439 315.304 277.522 316.2 277.329 317.03 276.853 317.867 276.375 318.604 275.633 319.254 274.619 319.902 273.608 320.271 272.625 320.353 271.669 320.442 270.711 320.243 269.817 319.767 268.987 319.293 268.153 318.551 267.414 317.544 266.769L315.706 265.59C314.695 264.942 313.711 264.574 312.755 264.491 311.802 264.405 310.906 264.598 310.066 265.073 309.232 265.548 308.488 266.29 307.84 267.301ZM310.653 269.12C311.032 268.529 311.502 268.182 312.059 268.075 312.612 267.967 313.206 268.116 313.83 268.516L315.669 269.695C316.289 270.092 316.665 270.565 316.797 271.113 316.93 271.662 316.807 272.231 316.428 272.822 316.054 273.406 315.59 273.752 315.039 273.857 314.488 273.961 313.903 273.813 313.283 273.416L311.444 272.237C310.821 271.837 310.435 271.363 310.298 270.822 310.157 270.279 310.274 269.711 310.653 269.12ZM321.064 278.1 326.815 277.479 326.409 274.306 320.725 275.263ZM323.856 267.47 325.378 264.497 319.2 258.708 327.711 259.942 328.648 258.113 322.672 251.928 330.98 253.559 332.501 250.589 318.921 248.196 317.74 250.502 324.099 256.938 315.161 255.539 313.979 257.846Z" fill="#1a1a18"/>
<path transform="matrix(1,0,0,-1,9,377.504)" stroke-width="1.0001" stroke-linecap="butt" stroke-miterlimit="22.9256" stroke-linejoin="miter" fill="none" stroke="#1a1a18" d="M184.48 358.776C280.427 358.776 358.208 280.995 358.208 185.048 358.208 89.1006 280.427 11.3199 184.48 11.3199 88.5325 11.3199 10.7518 89.1006 10.7518 185.048 10.7518 280.995 88.5325 358.776 184.48 358.776Z"/>
<path transform="matrix(1,0,0,-1,9,377.504)" d="M103.753 38.251C102.757 38.8312 102.174 39.511 102.007 40.2905 101.839 41.0703 102.043 41.9545 102.623 42.9506L109.46 54.6897 112.467 52.9384 106.064 41.9443C105.903 41.6673 105.835 41.4213 105.856 41.2081 105.877 40.9952 105.995 40.8266 106.208 40.7021L106.953 40.2681 105.265 37.37ZM106.359 52.0583 111.93 48.8132 110.434 46.2444 104.862 49.4895ZM113.032 33.429C111.879 33.9608 110.987 34.6249 110.363 35.4234 109.737 36.218 109.397 37.1146 109.336 38.1212 109.277 39.1218 109.505 40.1854 110.026 41.3147L110.649 42.6645C111.195 43.8489 111.87 44.7639 112.666 45.4133 113.462 46.0627 114.358 46.4227 115.346 46.4961 116.335 46.5698 117.389 46.351 118.502 45.8374 119.549 45.3546 120.322 44.6831 120.829 43.8148 121.331 42.9486 121.547 41.9278 121.478 40.7526 121.408 39.577 121.047 38.2881 120.399 36.8836L120.036 36.0964 111.852 39.8716 112.835 42.0043 118.136 39.5595 118.233 39.8534C118.464 40.5819 118.494 41.2169 118.319 41.7563 118.143 42.2955 117.764 42.6946 117.177 42.965 116.418 43.3154 115.724 43.3636 115.095 43.105 114.467 42.8409 113.962 42.2955 113.579 41.4655L112.879 39.9464C112.503 39.132 112.439 38.393 112.691 37.7379 112.942 37.0828 113.48 36.5627 114.302 36.1834 114.724 35.9892 115.179 35.8699 115.661 35.8288 116.147 35.786 116.621 35.8299 117.086 35.949L118.307 33.1628C117.423 32.8827 116.52 32.7651 115.601 32.8119 114.678 32.8603 113.823 33.0639 113.032 33.429ZM125.552 32.991C125.432 32.6937 125.424 32.4306 125.526 32.1976 125.629 31.9689 125.838 31.7911 126.152 31.6644L126.694 31.4453 125.439 28.3397 123.792 29.0052C122.812 29.4012 122.162 29.9911 121.848 30.7769 121.539 31.5607 121.587 32.4666 122.003 33.495L127.61 47.3723 130.837 46.0687ZM128.322 31.0153 131.606 29.8664 130.457 26.5822 127.173 27.7311ZM144.656 22.2273C143.553 22.4972 142.662 22.9388 141.984 23.5556 141.301 24.1733 140.853 24.9341 140.639 25.8435 140.429 26.7557 140.462 27.7826 140.742 28.923L140.745 28.9358C140.903 29.5841 141.153 30.2547 141.489 30.9353 141.826 31.6202 142.231 32.2926 142.709 32.9519 142.785 33.0625 142.871 33.1756 142.952 33.285 143.036 33.3935 143.12 33.4981 143.207 33.6016L148.734 40.4306 152.556 39.4948 146.053 31.6111 145.311 32.2614C145.612 32.5981 145.984 32.8238 146.432 32.9417 146.876 33.0602 147.365 33.052 147.891 32.9233 148.876 32.682 149.666 32.2656 150.263 31.678 150.858 31.0859 151.243 30.3446 151.414 29.4554 151.583 28.5619 151.528 27.5536 151.253 26.43L151.25 26.4172C150.968 25.2638 150.52 24.3295 149.911 23.6086 149.297 22.8847 148.546 22.4082 147.654 22.1715 146.767 21.9382 145.768 21.9552 144.656 22.2273ZM145.453 25.4809C146.055 25.3335 146.561 25.397 146.971 25.6669 147.38 25.937 147.662 26.3945 147.819 27.034L147.822 27.0468C148.003 27.7877 147.982 28.3952 147.756 28.8743 147.529 29.3494 147.115 29.6649 146.513 29.8123 145.92 29.9574 145.415 29.8621 144.988 29.5387 144.563 29.2099 144.265 28.6807 144.085 27.9482L144.083 27.9357C143.926 27.2959 143.965 26.7642 144.205 26.3398 144.448 25.9143 144.86 25.626 145.453 25.4809ZM160.217 28.6325 160.764 28.093C160.498 27.7379 160.144 27.5003 159.693 27.3818 159.242 27.2636 158.732 27.2458 158.153 27.33 157.231 27.464 156.453 27.805 155.818 28.3482 155.184 28.8958 154.735 29.6005 154.466 30.4628 154.198 31.3294 154.141 32.2923 154.296 33.3558L154.298 33.3686C154.469 34.5478 154.826 35.5294 155.364 36.3053 155.906 37.0803 156.608 37.6305 157.473 37.9468 158.334 38.2686 159.33 38.3468 160.463 38.1821 161.586 38.0188 162.514 37.656 163.247 37.0942 163.985 36.536 164.5 35.8041 164.797 34.8939 165.09 33.9885 165.152 32.9417 164.979 31.7497L164.977 31.737C164.889 31.1278 164.707 30.4801 164.428 29.7981 164.149 29.1161 163.789 28.389 163.352 27.6117 163.293 27.502 163.233 27.3923 163.168 27.2792 163.104 27.1706 163.041 27.0658 162.973 26.9617L158.572 19.6104 154.927 20.1404ZM159.337 30.4418C159.942 30.354 160.437 30.479 160.824 30.8211 161.211 31.1635 161.454 31.6888 161.558 32.4048L161.559 32.4136C161.66 33.1038 161.573 33.6549 161.297 34.0761 161.021 34.4971 160.581 34.7494 159.976 34.8372 159.363 34.9265 158.868 34.806 158.48 34.4815 158.094 34.1524 157.854 33.6441 157.754 32.9579L157.753 32.9451C157.649 32.2333 157.732 31.6607 158.006 31.2267 158.284 30.7922 158.724 30.5311 159.337 30.4418ZM171.382 17.8977C170.394 17.9915 169.53 18.2914 168.782 18.8019 168.038 19.3122 167.464 20.0021 167.068 20.8755 166.668 21.7534 166.485 22.7633 166.52 23.9049L166.521 23.9179 169.985 23.5891 169.984 23.576C169.985 22.8969 170.142 22.3554 170.452 21.9472 170.761 21.5393 171.196 21.3063 171.753 21.2536 172.357 21.1963 172.846 21.35 173.216 21.7157 173.585 22.0808 173.807 22.6256 173.876 23.3501L174.022 24.8905C174.091 25.6153 173.992 26.1859 173.732 26.6068 173.472 27.0275 173.068 27.2665 172.532 27.3172 172.032 27.3645 171.597 27.2752 171.224 27.0581 170.851 26.8367 170.575 26.5059 170.399 26.0657L167.163 26.3727 168.166 36.9377 178.036 36.0011 177.719 32.6616 171.308 33.2702 171 30.0217C171.288 30.2513 171.661 30.4163 172.128 30.5243 172.59 30.6283 173.045 30.659 173.494 30.6164 174.448 30.526 175.242 30.2289 175.878 29.7244 176.514 29.2243 176.97 28.5327 177.244 27.6579 177.518 26.7831 177.599 25.7525 177.486 24.5616L177.34 23.0216C177.227 21.831 176.915 20.8378 176.412 20.0367 175.905 19.2317 175.227 18.6474 174.379 18.284 173.525 17.9164 172.53 17.7888 171.382 17.8977ZM196.285 34.1663 193.012 17.8183 189.247 17.6176 192.45 32.9156 189.278 32.7467 189.426 29.9733 185.956 29.7882 185.63 35.9113 196.162 36.4725ZM205.841 18.7438C204.685 18.5666 203.637 18.6208 202.699 18.9068 201.762 19.1883 200.994 19.6758 200.401 20.3695 199.809 21.0634 199.433 21.9132 199.277 22.9283L199.231 23.2282C199.091 24.1404 199.213 25.0362 199.59 25.918 199.969 26.7956 200.544 27.5066 201.317 28.0414 200.543 28.2824 199.892 28.6999 199.355 29.2839 198.823 29.8687 198.498 30.5291 198.385 31.2659L198.311 31.7455C198.166 32.6965 198.26 33.5701 198.599 34.363 198.933 35.155 199.477 35.8129 200.234 36.3365 200.987 36.8552 201.908 37.2022 202.987 37.3677 204.062 37.5324 205.043 37.4769 205.918 37.2076 206.797 36.9346 207.513 36.47 208.069 35.8146 208.63 35.1595 208.981 34.3542 209.127 33.4032L209.2 32.9233C209.316 32.1695 209.2 31.4374 208.858 30.7227 208.513 30.0036 208.006 29.4171 207.33 28.963 208.238 28.677 209.008 28.1724 209.64 27.4496 210.277 26.7316 210.661 25.9135 210.8 25.0013L210.846 24.7014C211.002 23.6863 210.898 22.7631 210.54 21.9231 210.182 21.0838 209.596 20.3888 208.785 19.8397 207.976 19.2858 206.993 18.9204 205.841 18.7438ZM205.333 22.0547C205.792 22.125 206.184 22.2817 206.511 22.5247 206.838 22.7676 207.075 23.076 207.22 23.4488 207.359 23.8252 207.398 24.23 207.33 24.6756L207.303 24.8513C207.24 25.2624 207.086 25.6071 206.846 25.886 206.602 26.1643 206.291 26.3619 205.914 26.4796 205.536 26.5972 205.112 26.6196 204.645 26.5479 204.174 26.4759 203.776 26.3273 203.451 26.102 203.126 25.8769 202.888 25.5951 202.74 25.2476 202.595 24.9055 202.552 24.5307 202.615 24.1194L202.644 23.9309C202.712 23.4856 202.87 23.1109 203.115 22.8019 203.364 22.494 203.682 22.2752 204.066 22.1457 204.45 22.0158 204.871 21.9838 205.333 22.0547ZM204.133 29.8891C204.523 29.9489 204.857 30.0878 205.126 30.3041 205.4 30.5215 205.59 30.7962 205.704 31.138 205.819 31.4756 205.845 31.8478 205.782 32.2591L205.755 32.4349C205.696 32.8201 205.563 33.1421 205.356 33.4083 205.149 33.6702 204.888 33.8581 204.563 33.9749 204.244 34.0883 203.885 34.1121 203.495 34.0523 203.101 33.9919 202.766 33.8618 202.495 33.658 202.22 33.4491 202.027 33.1917 201.909 32.8714 201.791 32.5551 201.762 32.2044 201.82 31.8189L201.849 31.6301C201.911 31.2276 202.047 30.8846 202.257 30.6011 202.467 30.3177 202.731 30.1127 203.057 29.9871 203.379 29.8613 203.739 29.8287 204.133 29.8891ZM218.841 30.5498 219.54 30.2295C219.411 29.8046 219.159 29.4608 218.776 29.1957 218.392 28.9307 217.918 28.7402 217.346 28.622 216.433 28.4338 215.586 28.4888 214.804 28.7833 214.021 29.0818 213.358 29.5911 212.812 30.3103 212.264 31.0334 211.882 31.9192 211.665 32.9717L211.663 32.9845C211.422 34.1515 211.423 35.1961 211.664 36.1086 211.909 37.0222 212.381 37.7785 213.087 38.3709 213.787 38.9667 214.697 39.38 215.817 39.6113 216.929 39.8407 217.925 39.8163 218.806 39.5376 219.69 39.2644 220.424 38.7522 221.013 37.9976 221.597 37.2464 222.013 36.2835 222.256 35.104L222.259 35.0912C222.383 34.4886 222.433 33.8173 222.403 33.0814 222.374 32.345 222.284 31.5388 222.137 30.6592 222.119 30.5359 222.1 30.4123 222.078 30.2839 222.054 30.1598 222.031 30.0399 222.003 29.9191L220.371 21.5076 216.764 20.7632ZM217.398 31.951C217.996 32.0746 218.419 32.3609 218.666 32.8144 218.913 33.268 218.963 33.8445 218.816 34.5535L218.814 34.562C218.674 35.2451 218.405 35.7338 218.002 36.0357 217.599 36.3376 217.099 36.4246 216.5 36.301 215.893 36.1757 215.469 35.8937 215.214 35.4563 214.964 35.0155 214.912 34.456 215.052 33.7768L215.055 33.764C215.2 33.0596 215.473 32.5497 215.879 32.235 216.289 31.9215 216.791 31.8257 217.398 31.951ZM239.577 26.7403C238.646 26.3959 237.737 26.2911 236.842 26.4263 235.95 26.5632 235.133 26.9357 234.397 27.5505 233.656 28.1679 233.053 28.9984 232.589 30.0416L232.584 30.0538 235.848 31.261 235.852 31.2489C236.148 30.6374 236.525 30.2179 236.981 29.9846 237.437 29.7513 237.93 29.7303 238.454 29.9242 239.023 30.1348 239.397 30.4855 239.571 30.9756 239.746 31.4651 239.709 32.0519 239.456 32.7348L238.919 34.1855C238.667 34.8684 238.331 35.3401 237.913 35.606 237.496 35.8722 237.029 35.9118 236.525 35.7253 236.053 35.551 235.7 35.2817 235.458 34.924 235.218 34.5626 235.113 34.145 235.145 33.6719L232.097 32.544 228.415 42.497 237.714 45.9374 238.878 42.7915 232.838 40.5573 233.97 37.497C234.129 37.8286 234.394 38.139 234.768 38.4392 235.139 38.7334 235.536 38.9588 235.959 39.1153 236.857 39.4475 237.702 39.5246 238.493 39.346 239.283 39.1717 239.995 38.7468 240.622 38.0775 241.248 37.4083 241.768 36.5148 242.183 35.3931L242.72 33.942C243.135 32.8204 243.285 31.7903 243.18 30.8503 243.072 29.9049 242.715 29.0843 242.108 28.3887 241.499 27.6874 240.658 27.1403 239.577 26.7403ZM252.507 31.8597C251.483 31.4206 250.487 31.2151 249.526 31.246 248.566 31.2732 247.696 31.5456 246.91 32.0576 246.129 32.5709 245.506 33.3082 245.035 34.2754L248.336 35.6913C248.532 35.3656 248.764 35.1111 249.029 34.9325 249.293 34.7581 249.576 34.6578 249.882 34.638 250.185 34.6124 250.499 34.6717 250.826 34.8117 251.435 35.0731 251.828 35.4441 252.013 35.9246 252.198 36.4048 252.162 36.9505 251.898 37.5678L251.728 37.9619C251.452 38.6073 251.103 39.0467 250.686 39.2831 250.269 39.5189 249.807 39.5286 249.309 39.3151L247.876 38.7 246.553 41.7827 247.987 42.3975C248.393 42.5716 248.639 42.8562 248.73 43.2584 248.822 43.6609 248.749 44.1388 248.512 44.6924L248.387 44.983C248.163 45.5046 247.868 45.8541 247.499 46.031 247.133 46.2132 246.727 46.2042 246.285 46.0145 245.998 45.8915 245.766 45.7072 245.591 45.4575 245.419 45.2092 245.308 44.907 245.264 44.5581 245.222 44.2054 245.252 43.8177 245.353 43.3942L242.06 41.9817C241.713 43.0543 241.607 44.0697 241.748 45.0164 241.887 45.9672 242.248 46.7963 242.824 47.5104 243.405 48.2216 244.152 48.7777 245.068 49.1703 246.57 49.8144 247.897 49.9309 249.047 49.5139 250.195 49.1012 251.071 48.1901 251.676 46.7802L251.896 46.2665C252.233 45.4822 252.327 44.7114 252.183 43.9608 252.035 43.2045 251.656 42.5282 251.05 41.9287 251.947 42.0919 252.764 41.9332 253.498 41.4556 254.231 40.9776 254.818 40.225 255.261 39.1898L255.482 38.6762C255.906 37.6883 256.072 36.7605 255.987 35.8937 255.897 35.0254 255.559 34.253 254.967 33.5656 254.379 32.8799 253.558 32.3104 252.507 31.8597ZM261.21 54.6114 265.412 38.4775 262.114 36.6514 258.308 51.8105 255.529 50.2722 256.875 47.8423 253.834 46.1591 250.864 51.5234 260.091 56.632Z" fill="#1a1a18"/>
</g>
</g>
</svg>
