<svg xmlns="http://www.w3.org/2000/svg" data-name="17 Bicycle repair" viewBox="0 0 64 80" x="0px" y="0px"><path d="M50,54h-2c-.552,0-1,.447-1,1s.448,1,1,1h2c.551,0,1,.448,1,1s-.449,1-1,1h-8.533l2.597-6.61v-.002l6.407-16.308c.202-.514-.051-1.094-.565-1.296-.514-.2-1.095,.051-1.296,.565l-4.565,11.62-11.234-15.555c-.183-.254-.466-.382-.758-.397-.017-.006-.028-.017-.053-.017h-6.051c-.514-6.701-6.118-12-12.949-12C5.832,18,0,23.832,0,31s5.832,13,13,13c1.154,0,2.267-.166,3.333-.449l2.547,7.276-2.38,3.173h-3.5c-.552,0-1,.447-1,1s.448,1,1,1h10c.552,0,1-.447,1-1s-.448-1-1-1h-4l1.5-2h21.176l-2.607,6.635c-.121,.308-.082,.655,.104,.929,.186,.273,.496,.437,.826,.437h10c1.654,0,3-1.346,3-3s-1.346-3-3-3ZM13,42c-6.065,0-11-4.935-11-11s4.935-11,11-11c5.728,0,10.442,4.402,10.949,10h-2.949c-.552,0-1,.447-1,1s.448,1,1,1h2.949c-.363,4.008-2.885,7.394-6.391,8.999l-2.003-5.724c1.457-.875,2.445-2.455,2.445-4.274,0-2.757-2.243-5-5-5s-5,2.243-5,5,2.243,5,5,5c.228,0,.447-.038,.667-.067l2.004,5.726c-.857,.215-1.748,.342-2.671,.342Zm.985-8.185c-.007,.002-.011,.008-.017,.01-.305,.105-.628,.174-.968,.174-1.654,0-3-1.346-3-3s1.346-3,3-3,3,1.346,3,3c0,1.297-.832,2.394-1.987,2.812-.009,.003-.019,0-.028,.004Zm11.964-1.815h4.285l-9.995,16.657-2.016-5.761c4.282-1.888,7.352-6.018,7.726-10.896Zm-4.183,18l10.311-17.185,11.099,15.367-.714,1.818H21.766Z"/><path d="M50,4c-7.72,0-14,6.28-14,14s6.28,14,14,14,14-6.28,14-14-6.28-14-14-14Zm0,26c-6.617,0-12-5.383-12-12s5.383-12,12-12,12,5.383,12,12-5.383,12-12,12Z"/><path d="M58.094,13.138c-.15-.278-.423-.469-.735-.514-.31-.043-.627,.06-.851,.282l-3.328,3.328c-.378,.378-1.038,.376-1.414,0-.189-.188-.293-.44-.293-.707s.104-.519,.292-.707l3.328-3.328c.223-.224,.328-.539,.283-.852-.046-.312-.236-.585-.514-.735-3.087-1.668-6.978-1.104-9.461,1.379-2.015,2.016-2.792,4.985-2.065,7.722l-2.101,2.101c-.391,.391-.391,1.023,0,1.414s1.023,.391,1.414,0l2.527-2.526c.273-.272,.364-.678,.235-1.042-.772-2.174-.221-4.629,1.403-6.254,1.526-1.525,3.76-2.088,5.793-1.549l-2.257,2.257c-.566,.566-.878,1.319-.878,2.121s.312,1.555,.878,2.121c1.17,1.17,3.073,1.169,4.243,0l2.257-2.257c.537,2.031-.024,4.267-1.55,5.792-1.624,1.624-4.079,2.178-6.253,1.403-.364-.131-.77-.037-1.042,.235l-2.527,2.527c-.391,.391-.391,1.023,0,1.414,.195,.195,.451,.293,.707,.293s.512-.098,.707-.293l2.101-2.102c2.734,.73,5.706-.049,7.721-2.064,2.483-2.481,3.05-6.372,1.379-9.46Z"/></svg>
